<mxfile host="app.diagrams.net" modified="2023-08-08T14:43:41.121Z" agent="Mozilla/5.0 (Windows NT 10.0; Win64; x64) AppleWebKit/537.36 (KHTML, like Gecko) Chrome/115.0.0.0 Safari/537.36" etag="FvDI6V-ApDI9esWTm_Hd" version="21.5.2" type="device">
  <diagram name="Page-1" id="M6DQpz9acA0PqHt25ApY">
    <mxGraphModel dx="1434" dy="870" grid="1" gridSize="10" guides="1" tooltips="1" connect="1" arrows="1" fold="1" page="1" pageScale="1" pageWidth="850" pageHeight="1100" math="0" shadow="0">
      <root>
        <mxCell id="0" />
        <mxCell id="1" parent="0" />
        <mxCell id="oa3RFMOhedNf_UM47Dp--4" style="edgeStyle=orthogonalEdgeStyle;rounded=0;orthogonalLoop=1;jettySize=auto;html=1;exitX=1;exitY=0.25;exitDx=0;exitDy=0;entryX=0;entryY=0.25;entryDx=0;entryDy=0;" edge="1" parent="1" source="oa3RFMOhedNf_UM47Dp--1" target="oa3RFMOhedNf_UM47Dp--3">
          <mxGeometry relative="1" as="geometry" />
        </mxCell>
        <mxCell id="oa3RFMOhedNf_UM47Dp--7" style="edgeStyle=orthogonalEdgeStyle;rounded=0;orthogonalLoop=1;jettySize=auto;html=1;exitX=0.5;exitY=1;exitDx=0;exitDy=0;" edge="1" parent="1" source="oa3RFMOhedNf_UM47Dp--1" target="oa3RFMOhedNf_UM47Dp--6">
          <mxGeometry relative="1" as="geometry" />
        </mxCell>
        <mxCell id="oa3RFMOhedNf_UM47Dp--11" style="edgeStyle=orthogonalEdgeStyle;rounded=0;orthogonalLoop=1;jettySize=auto;html=1;exitX=0;exitY=0.5;exitDx=0;exitDy=0;entryX=0;entryY=0.5;entryDx=0;entryDy=0;" edge="1" parent="1" source="oa3RFMOhedNf_UM47Dp--1" target="oa3RFMOhedNf_UM47Dp--8">
          <mxGeometry relative="1" as="geometry">
            <Array as="points">
              <mxPoint x="110" y="100" />
              <mxPoint x="110" y="410" />
            </Array>
          </mxGeometry>
        </mxCell>
        <mxCell id="oa3RFMOhedNf_UM47Dp--1" value="Login view" style="rounded=1;whiteSpace=wrap;html=1;" vertex="1" parent="1">
          <mxGeometry x="170" y="70" width="120" height="60" as="geometry" />
        </mxCell>
        <mxCell id="oa3RFMOhedNf_UM47Dp--5" style="edgeStyle=orthogonalEdgeStyle;rounded=0;orthogonalLoop=1;jettySize=auto;html=1;exitX=0;exitY=0.5;exitDx=0;exitDy=0;entryX=1;entryY=0.5;entryDx=0;entryDy=0;" edge="1" parent="1" source="oa3RFMOhedNf_UM47Dp--3" target="oa3RFMOhedNf_UM47Dp--1">
          <mxGeometry relative="1" as="geometry" />
        </mxCell>
        <mxCell id="oa3RFMOhedNf_UM47Dp--3" value="Register view" style="rounded=1;whiteSpace=wrap;html=1;" vertex="1" parent="1">
          <mxGeometry x="400" y="70" width="120" height="60" as="geometry" />
        </mxCell>
        <mxCell id="oa3RFMOhedNf_UM47Dp--9" style="edgeStyle=orthogonalEdgeStyle;rounded=0;orthogonalLoop=1;jettySize=auto;html=1;exitX=0.5;exitY=1;exitDx=0;exitDy=0;entryX=0.5;entryY=0;entryDx=0;entryDy=0;" edge="1" parent="1" source="oa3RFMOhedNf_UM47Dp--6" target="oa3RFMOhedNf_UM47Dp--8">
          <mxGeometry relative="1" as="geometry" />
        </mxCell>
        <mxCell id="oa3RFMOhedNf_UM47Dp--6" value="Profile Selection View" style="rounded=1;whiteSpace=wrap;html=1;" vertex="1" parent="1">
          <mxGeometry x="170" y="230" width="120" height="60" as="geometry" />
        </mxCell>
        <mxCell id="oa3RFMOhedNf_UM47Dp--8" value="Homepage view" style="rounded=1;whiteSpace=wrap;html=1;" vertex="1" parent="1">
          <mxGeometry x="170" y="380" width="120" height="60" as="geometry" />
        </mxCell>
        <mxCell id="oa3RFMOhedNf_UM47Dp--10" value="User" style="text;html=1;strokeColor=none;fillColor=none;align=center;verticalAlign=middle;whiteSpace=wrap;rounded=0;" vertex="1" parent="1">
          <mxGeometry x="180" y="160" width="60" height="30" as="geometry" />
        </mxCell>
        <mxCell id="oa3RFMOhedNf_UM47Dp--12" value="Admin" style="text;html=1;strokeColor=none;fillColor=none;align=center;verticalAlign=middle;whiteSpace=wrap;rounded=0;" vertex="1" parent="1">
          <mxGeometry x="60" y="220" width="60" height="30" as="geometry" />
        </mxCell>
      </root>
    </mxGraphModel>
  </diagram>
</mxfile>
